<svg width="40" height="40" viewBox="0 0 40 40" fill="none" xmlns="http://www.w3.org/2000/svg">
<path fill-rule="evenodd" clip-rule="evenodd" d="M27.7426 16.4854H25.2162L19.8594 21.8422C19.6258 22.0758 19.3186 22.1926 19.0114 22.1926C18.7042 22.1926 18.397 22.0758 18.1634 21.8422C17.6946 21.3734 17.6946 20.6134 18.1634 20.1446L23.5186 14.7878V12.2518C23.5186 11.5894 24.0562 11.0518 24.7186 11.0518C25.381 11.0518 25.9186 11.5894 25.9186 12.2518V14.0854H27.7426C28.405 14.0854 28.9426 14.623 28.9426 15.2854C28.9426 15.9478 28.405 16.4854 27.7426 16.4854ZM19.4482 28.1062C19.3634 28.1062 19.277 28.1046 19.1906 28.103C14.9155 27.9622 11.5522 24.3734 11.6898 20.103C11.8322 15.8214 15.493 12.4886 19.6978 12.5942C20.3602 12.6166 20.8786 13.1718 20.8578 13.8342C20.837 14.4966 20.2978 14.999 19.6194 14.9942C19.5602 14.991 19.501 14.991 19.4418 14.991C16.5682 14.991 14.1826 17.2838 14.0898 20.1814C13.9922 23.1286 16.317 25.6054 19.269 25.703C22.1762 25.8518 24.7026 23.479 24.797 20.5302C24.8194 19.8678 25.3954 19.3574 26.037 19.3702C26.6994 19.391 27.2194 19.9462 27.197 20.6086C27.0594 24.7942 23.6082 28.1062 19.4482 28.1062ZM20.0002 5.375C12.0898 5.375 5.65625 11.8134 5.65625 19.727C5.65625 27.6326 12.0898 34.063 20.0002 34.063C27.9074 34.063 34.3426 27.6326 34.3426 19.727C34.3426 11.8134 27.9074 5.375 20.0002 5.375Z" fill="#FFFDF9"/>
</svg>
