<svg width="40" height="40" viewBox="0 0 40 40" fill="none" xmlns="http://www.w3.org/2000/svg">
<path fill-rule="evenodd" clip-rule="evenodd" d="M20.0046 26.365C16.488 26.365 13.628 23.5083 13.628 19.9983C13.628 16.4767 16.488 13.6151 20.0046 13.6151C23.5213 13.6151 26.383 16.4767 26.383 19.9983C26.383 23.5083 23.5213 26.365 20.0046 26.365ZM20.0013 7.33008C11.863 7.33008 4.16797 13.4851 4.16797 19.9983C4.16797 26.6267 11.7146 32.665 20.0013 32.665C28.288 32.665 35.8346 26.6267 35.8346 19.9983C35.8346 13.4851 28.1396 7.33008 20.0013 7.33008Z" fill="#FFFDF9"/>
<path fill-rule="evenodd" clip-rule="evenodd" d="M20.0016 16.1172C17.8633 16.1172 16.125 17.8588 16.125 20.0005C16.125 22.1322 17.8633 23.8672 20.0016 23.8672C22.1399 23.8672 23.88 22.1322 23.88 20.0005C23.88 17.8588 22.1399 16.1172 20.0016 16.1172Z" fill="#FFFDF9"/>
</svg>
