<svg width="24" height="24" viewBox="0 0 24 24" fill="none" xmlns="http://www.w3.org/2000/svg">
<path fill-rule="evenodd" clip-rule="evenodd" d="M20.5675 15.5766C20.171 15.6073 19.8744 15.9549 19.9061 16.3513C19.9368 16.7526 19.908 17.296 19.5941 17.6041C19.5931 17.6061 19.5912 17.6089 19.5912 17.6089L19.5893 17.6109C19.3685 17.8221 19.0325 17.9373 18.5717 17.9373C16.9877 17.9373 13.9925 16.5548 10.9013 13.454C7.21487 9.77725 5.66927 5.83166 6.73487 4.75646L6.73871 4.75454C7.05359 4.43678 7.59599 4.41374 7.99151 4.44446C8.38703 4.4723 8.73743 4.18526 8.77103 3.78974C8.80559 3.39326 8.51183 3.04382 8.11535 3.01022C6.84047 2.90366 6.10799 3.34718 5.71727 3.7379L5.71535 3.74174C5.64911 3.80798 5.59151 3.87422 5.53487 3.94046C1.61807 8.05886 1.68527 14.5964 5.71727 18.6284C7.70447 20.6252 10.3541 21.7196 13.1669 21.7196C15.9778 21.7196 18.6149 20.6272 20.6011 18.6332L20.604 18.6323L20.6059 18.6294L20.6069 18.6284L20.6078 18.6275C20.9986 18.2406 21.4402 17.5148 21.3413 16.238C21.3106 15.8425 20.9659 15.5612 20.5675 15.5766Z" fill="black"/>
<path fill-rule="evenodd" clip-rule="evenodd" d="M19.0086 13.6561C19.1362 13.9048 19.3887 14.0459 19.6489 14.0459C19.7602 14.0459 19.8726 14.0209 19.9791 13.9653C20.3324 13.7838 20.4706 13.3489 20.2882 12.9966C19.6441 11.7496 18.7273 10.4257 17.6348 9.16715C17.3737 8.86859 16.9196 8.83499 16.6191 9.09611C16.3186 9.35627 16.287 9.81134 16.5471 10.1128C17.5657 11.284 18.4162 12.5099 19.0086 13.6561Z" fill="black"/>
<path fill-rule="evenodd" clip-rule="evenodd" d="M10.8126 5.39852C11.9022 5.97836 13.0657 6.79148 14.1755 7.74668C14.3118 7.8638 14.4779 7.9214 14.6449 7.9214C14.8475 7.9214 15.0481 7.83596 15.1912 7.67084C15.4504 7.37036 15.4158 6.91532 15.1144 6.65612C13.9259 5.6318 12.6721 4.75724 11.4904 4.12748C11.138 3.94124 10.7032 4.07276 10.516 4.42412C10.3297 4.77548 10.4622 5.21132 10.8126 5.39852Z" fill="black"/>
</svg>
