<svg width="24" height="24" viewBox="0 0 24 24" fill="none" xmlns="http://www.w3.org/2000/svg">
<path fill-rule="evenodd" clip-rule="evenodd" d="M8.58978 4.00173V7.92785C8.58978 8.0869 8.71873 8.21585 8.87778 8.21585H15.3779C15.5142 8.21585 15.6427 8.15943 15.7337 8.05803C16.2834 7.44591 18.3062 5.19366 19.5588 3.80363C19.6844 3.66436 19.6448 3.44386 19.4686 3.37982C19.218 3.28874 18.9499 3.23633 18.6679 3.23633H9.3741C9.18355 3.23633 8.99544 3.25737 8.80943 3.29177C8.67828 3.31603 8.58731 3.43308 8.58789 3.56646C8.58873 3.75711 8.58978 3.99882 8.58978 4.00173Z" fill="black"/>
<path fill-rule="evenodd" clip-rule="evenodd" d="M20.9896 4.92662C20.9243 4.73771 20.6835 4.70711 20.5496 4.85557L16.723 9.09952C16.6596 9.16864 16.6289 9.25312 16.6289 9.35008V14.4419C16.6289 14.601 16.7578 14.7299 16.9169 14.7299H20.8327C20.9918 14.7299 21.1207 14.601 21.1207 14.4419V5.6944C21.1207 5.42458 21.073 5.16768 20.9896 4.92662Z" fill="black"/>
<path fill-rule="evenodd" clip-rule="evenodd" d="M7.14998 9.94425C7.14998 9.78527 7.02104 9.65625 6.86198 9.65625H3.16886C3.00981 9.65625 2.88086 9.78527 2.88086 9.94425V19.0182C2.88086 19.2542 2.91712 19.4807 2.98177 19.6954C3.04205 19.8955 3.29626 19.9253 3.42832 19.7632L7.0421 15.3279C7.11188 15.2423 7.14998 15.1352 7.14998 15.0247V9.94425Z" fill="black"/>
<path fill-rule="evenodd" clip-rule="evenodd" d="M8.58789 14.4409C8.58789 14.6 8.71683 14.7289 8.87589 14.7289H14.899C15.0579 14.7289 15.187 14.6 15.187 14.4409V9.94425C15.187 9.78527 15.0579 9.65625 14.899 9.65625H8.87589C8.71683 9.65625 8.58789 9.78527 8.58789 9.94425V14.4409Z" fill="black"/>
<path fill-rule="evenodd" clip-rule="evenodd" d="M6.86141 8.2156C7.02047 8.2156 7.14941 8.08666 7.14941 7.9276V4.32105C7.14941 4.22564 7.02872 4.16414 6.96125 4.2316L3.88061 7.32088C3.72904 7.4719 3.5979 7.63674 3.48285 7.81091C3.36469 7.9898 3.50272 8.2156 3.71712 8.2156H6.86141Z" fill="black"/>
<path fill-rule="evenodd" clip-rule="evenodd" d="M16.9169 16.1699C16.7578 16.1699 16.6289 16.2988 16.6289 16.4579V20.2803C16.6289 20.5009 16.8824 20.6292 17.0379 20.4726L20.1233 17.3978C20.3737 17.144 20.5755 16.8574 20.7316 16.5491C20.8223 16.3702 20.6838 16.1699 20.4831 16.1699H16.9169Z" fill="black"/>
<path fill-rule="evenodd" clip-rule="evenodd" d="M15.1883 16.4579C15.1883 16.2988 15.0594 16.1699 14.9003 16.1699H8.44095C8.29664 16.1699 8.15999 16.2348 8.06884 16.3468L4.36503 20.8921C4.25193 21.0309 4.29143 21.2395 4.45773 21.3058C4.72905 21.414 5.02258 21.4768 5.33194 21.4768H14.6257C14.7339 21.4768 14.8409 21.4691 14.9468 21.4568C15.0866 21.4407 15.1883 21.3189 15.1883 21.1781V16.4579Z" fill="black"/>
</svg>
