<svg width="15" height="15" viewBox="0 0 15 15" fill="none" xmlns="http://www.w3.org/2000/svg">
<path fill-rule="evenodd" clip-rule="evenodd" d="M7.49927 6.01367C6.38074 6.01367 5.4707 6.9222 5.4707 8.03999C5.4707 9.15778 6.38074 10.0663 7.49927 10.0663C8.61779 10.0663 9.52705 9.15778 9.52705 8.03999C9.52705 6.9222 8.61779 6.01367 7.49927 6.01367Z" fill="#FFFDF9"/>
<path fill-rule="evenodd" clip-rule="evenodd" d="M11.1973 5.15087C10.7773 5.15087 10.4346 4.81045 10.4346 4.39266C10.4346 3.9734 10.7773 3.63298 11.1973 3.63298C11.6173 3.63298 11.9592 3.9734 11.9592 4.39266C11.9592 4.81045 11.6173 5.15087 11.1973 5.15087ZM7.49833 11.1716C5.77117 11.1716 4.36528 9.76719 4.36528 8.04004C4.36528 6.31288 5.77117 4.90845 7.49833 4.90845C9.22622 4.90845 10.6314 6.31288 10.6314 8.04004C10.6314 9.76719 9.22622 11.1716 7.49833 11.1716ZM10.7205 0.796875H4.50528C2.1776 0.796875 0.613281 2.43414 0.613281 4.87161V10.7221C0.613281 13.1589 2.1776 14.7969 4.50528 14.7969H10.7198C13.0482 14.7969 14.6133 13.1589 14.6133 10.7221V4.87161C14.6133 2.43414 13.049 0.796875 10.7205 0.796875Z" fill="#FFFDF9"/>
</svg>
