<svg width="18" height="18" viewBox="0 0 18 18" fill="none" xmlns="http://www.w3.org/2000/svg">
<path d="M17.6117 17.7969H14.0507V12.275C14.0507 10.9583 14.0269 9.26327 12.1986 9.26327C10.3438 9.26327 10.0601 10.6979 10.0601 12.1792V17.7965H6.499V6.44138H9.91761V7.99318H9.96547C10.3076 7.41398 10.802 6.9375 11.3959 6.6145C11.9899 6.29149 12.6613 6.13405 13.3385 6.15894C16.9477 6.15894 17.6132 8.50959 17.6132 11.5676L17.6117 17.7969Z" fill="#FFFDF9"/>
<path d="M4.26148 17.7969H0.696721V6.44138H4.26148V17.7969Z" fill="#FFFDF9"/>
<path d="M2.48096 4.88922C2.07224 4.88929 1.67266 4.76936 1.33278 4.54458C0.992904 4.3198 0.727994 4.00028 0.571516 3.62642C0.415038 3.25256 0.374031 2.84115 0.453697 2.44422C0.533362 2.04729 0.730121 1.68266 1.01908 1.39645C1.30803 1.11023 1.67622 0.915287 2.07707 0.836264C2.47792 0.757241 2.89343 0.797688 3.27106 0.952491C3.6487 1.10729 3.97149 1.3695 4.19863 1.70595C4.42576 2.0424 4.54704 2.43799 4.54711 2.84268C4.54716 3.11139 4.49375 3.37747 4.38994 3.62574C4.28613 3.87401 4.13397 4.09961 3.94211 4.28965C3.75025 4.47969 3.52245 4.63044 3.27174 4.73332C3.02104 4.83619 2.75234 4.88917 2.48096 4.88922Z" fill="#FFFDF9"/>
</svg>
