<svg width="20" height="21" viewBox="0 0 20 21" fill="none" xmlns="http://www.w3.org/2000/svg">
<path fill-rule="evenodd" clip-rule="evenodd" d="M14.8313 13.658C14.7122 13.7638 14.5647 13.8155 14.4163 13.8155C14.2447 13.8155 14.073 13.7447 13.9488 13.6063L11.618 10.9838L11.4738 11.0997C11.0205 11.4388 10.5055 11.608 9.99384 11.608C9.48634 11.608 8.98134 11.4422 8.54051 11.1105L8.42301 11.0172L6.04301 13.613C5.92051 13.7472 5.75134 13.8155 5.58217 13.8155C5.43134 13.8155 5.27967 13.7613 5.16051 13.6513C4.90551 13.4188 4.88801 13.023 5.12217 12.7688L7.44467 10.2347L5.19134 8.43299C4.92217 8.21716 4.87884 7.82466 5.09384 7.55466C5.31134 7.2855 5.70384 7.243 5.97301 7.45633L9.30634 10.123C9.73301 10.4438 10.263 10.4438 10.708 10.1113L14.0255 7.45633C14.2955 7.243 14.688 7.2855 14.9047 7.55466C15.1205 7.82466 15.0763 8.21716 14.8072 8.43299L12.5955 10.2022L14.883 12.7755C15.113 13.0338 15.0897 13.4288 14.8313 13.658ZM13.6663 3.36133H6.33301C3.87051 3.36133 2.08301 5.28966 2.08301 7.94466V13.1113C2.08301 15.7238 3.90967 17.6947 6.33301 17.6947H13.6663C16.1288 17.6947 17.9163 15.7663 17.9163 13.1113V7.94466C17.9163 5.33216 16.0888 3.36133 13.6663 3.36133Z" fill="#222222"/>
</svg>
