<svg width="20" height="21" viewBox="0 0 20 21" fill="none" xmlns="http://www.w3.org/2000/svg">
<path fill-rule="evenodd" clip-rule="evenodd" d="M17.13 7.2325L11.935 3.08167C10.7892 2.17 9.18917 2.17083 8.04083 3.08333L2.88167 7.2225C2.2525 7.70083 1.885 8.42667 1.875 9.22087V17.2009C1.875 18.0025 2.52667 18.6542 3.32833 18.6542H6.20417C7.00583 18.6542 7.6575 18.0025 7.6575 17.2009V14.445C7.6575 13.12 8.65667 11.9892 9.88417 11.9242C10.5333 11.89 11.1608 12.1184 11.6342 12.5667C12.1083 13.0167 12.3692 13.625 12.3692 14.2792V17.2009C12.3692 18.0025 13.0208 18.6542 13.8225 18.6542H16.6717C17.4733 18.6542 18.125 18.0025 18.125 17.2009V9.21087C18.1117 8.42583 17.7333 7.68167 17.13 7.2325Z" fill="#222222"/>
</svg>
