<svg width="20" height="21" viewBox="0 0 20 21" fill="none" xmlns="http://www.w3.org/2000/svg">
<path fill-rule="evenodd" clip-rule="evenodd" d="M6.50134 2.61133H4.33134C3.09134 2.61133 2.08301 3.61966 2.08301 4.85966V7.02966C2.08301 8.26966 3.09134 9.27799 4.33134 9.27799H6.50134C7.74134 9.27799 8.74967 8.26966 8.74967 7.02966V4.85966C8.74967 3.61966 7.74134 2.61133 6.50134 2.61133Z" fill="#222222"/>
<path fill-rule="evenodd" clip-rule="evenodd" d="M15.6683 11.7773H13.4983C12.2583 11.7773 11.25 12.7857 11.25 14.0257V16.1957C11.25 17.4357 12.2583 18.444 13.4983 18.444H15.6683C16.9083 18.444 17.9167 17.4357 17.9167 16.1957V14.0257C17.9167 12.7857 16.9083 11.7773 15.6683 11.7773Z" fill="#222222"/>
<path fill-rule="evenodd" clip-rule="evenodd" d="M6.50134 11.7773H4.33134C3.09134 11.7773 2.08301 12.7857 2.08301 14.0257V16.1957C2.08301 17.4357 3.09134 18.444 4.33134 18.444H6.50134C7.74134 18.444 8.74967 17.4357 8.74967 16.1957V14.0257C8.74967 12.7857 7.74134 11.7773 6.50134 11.7773Z" fill="#222222"/>
<path fill-rule="evenodd" clip-rule="evenodd" d="M15.6683 2.61133H13.4983C12.2583 2.61133 11.25 3.61966 11.25 4.85966V7.02966C11.25 8.26966 12.2583 9.27799 13.4983 9.27799H15.6683C16.9083 9.27799 17.9167 8.26966 17.9167 7.02966V4.85966C17.9167 3.61966 16.9083 2.61133 15.6683 2.61133Z" fill="#222222"/>
</svg>
