<svg width="40" height="40" viewBox="0 0 40 40" fill="none" xmlns="http://www.w3.org/2000/svg">
<path fill-rule="evenodd" clip-rule="evenodd" d="M23.719 13.8217L22.6507 14.845L22.9006 16.2817C22.9923 16.8867 22.5873 17.445 21.9973 17.5383C21.774 17.575 21.5306 17.5383 21.319 17.43L19.934 16.7083L18.6856 17.43C18.5307 17.5133 18.3573 17.555 18.184 17.555C18.074 17.555 17.9656 17.5383 17.8573 17.505C17.579 17.42 17.3506 17.2283 17.2156 16.97C17.1056 16.775 17.064 16.53 17.1023 16.29L17.3556 14.8484L16.2956 13.83C16.0856 13.63 15.9689 13.3584 15.9623 13.0684C15.9573 12.78 16.0656 12.5034 16.2673 12.295C16.4373 12.12 16.6656 12.0034 16.909 11.9734L18.449 11.7517L19.0273 10.4534C19.309 9.90838 19.964 9.69671 20.5073 9.97671C20.7023 10.0784 20.8623 10.2367 20.9706 10.435L20.9773 10.4517L21.6723 11.8367L23.1073 11.975C23.389 12.0134 23.6456 12.1617 23.8223 12.3934C23.9973 12.625 24.0707 12.91 24.0306 13.1984C24.0056 13.4184 23.894 13.6467 23.719 13.8217ZM36.2023 9.07004C36.1323 8.43838 35.5973 7.96003 34.9607 7.96003H30.8556C30.9123 7.02669 30.9173 6.40503 30.9173 6.27669C30.9173 5.81671 30.5457 5.44336 30.084 5.44336H9.91727C9.6956 5.44336 9.48393 5.53171 9.32727 5.68836C9.1706 5.84338 9.08393 6.05669 9.08393 6.27836C9.08393 6.40669 9.08893 7.02836 9.1456 7.96003H5.0406C4.40393 7.96003 3.86893 8.43838 3.79893 9.07004C3.7656 9.36004 3.0606 16.205 8.31893 19.6633C8.5306 19.8033 8.76727 19.87 9.00393 19.87C9.4106 19.87 9.80893 19.6717 10.0506 19.3067C10.4289 18.73 10.2706 17.955 9.69227 17.575C6.8156 15.6834 6.31727 12.2317 6.25893 10.46H9.3806C10.0289 15.675 12.1089 23.9833 18.7473 24.9233V27.8483H14.8406C14.4773 27.8483 14.1573 28.0833 14.0456 28.4267L12.8839 32.0533H10.6656C9.9756 32.0533 9.4156 32.6133 9.4156 33.3033C9.4156 33.9933 9.9756 34.5533 10.6656 34.5533H29.574C30.264 34.5533 30.824 33.9933 30.824 33.3033C30.824 32.6133 30.264 32.0533 29.574 32.0533H27.354L26.194 28.4283C26.084 28.0833 25.764 27.8483 25.4007 27.8483H21.2473V24.9267C27.9007 24 29.9773 15.68 30.624 10.46H33.7423C33.684 12.2317 33.1856 15.6834 30.309 17.575C29.7306 17.955 29.5723 18.73 29.9506 19.3067C30.1923 19.6717 30.5907 19.87 30.9973 19.87C31.234 19.87 31.4707 19.8033 31.6823 19.6633C36.9407 16.205 36.2357 9.36004 36.2023 9.07004Z" fill="#44413B"/>
</svg>
