<svg width="40" height="40" viewBox="0 0 40 40" fill="none" xmlns="http://www.w3.org/2000/svg">
<path fill-rule="evenodd" clip-rule="evenodd" d="M31.8841 5.81629C30.0057 4.31443 27.2543 4.52528 25.6433 6.28669L16.8881 15.3427C15.8129 16.5171 15.2673 18.1043 15.3921 19.6931C15.4079 19.892 15.4363 20.0872 15.4747 20.279C15.5476 20.643 15.2345 20.9977 14.8644 20.9699C14.052 20.9084 13.224 21.0048 12.4225 21.2739C10.4017 21.9539 8.88331 23.5939 8.36171 25.6611L6.44331 33.2403C6.31851 33.7443 6.44651 34.2787 6.78731 34.6691C7.09131 35.0163 7.52651 35.2115 7.98251 35.2115C8.04011 35.2115 8.09931 35.2083 8.15851 35.2019C8.37611 35.1779 8.53291 35.1139 8.66411 34.9395C8.67531 34.9283 9.83051 33.8739 15.2657 33.7251C18.1537 33.6467 20.2513 32.2867 21.0193 29.9939C21.4961 28.5736 21.3857 27.0099 20.7817 25.5571C20.6743 25.2987 20.877 25.0179 21.1569 25.0179C21.4321 25.0179 21.7089 24.9987 21.9825 24.9587C23.5585 24.7299 24.9857 23.8483 25.9057 22.5219L26.097 22.2297C26.2292 22.028 26.1913 21.7596 26.0082 21.6025L21.6705 17.8787C21.1681 17.4467 21.1105 16.6883 21.5409 16.1859C21.9745 15.6835 22.7297 15.6259 23.2337 16.0579L27.2399 19.4987C27.4597 19.6873 27.7953 19.64 27.9541 19.3977L32.7873 12.0243C34.1615 10.0453 33.7636 7.3188 31.8841 5.81629Z" fill="#44413B"/>
</svg>
