<svg width="41" height="40" viewBox="0 0 41 40" fill="none" xmlns="http://www.w3.org/2000/svg">
<path fill-rule="evenodd" clip-rule="evenodd" d="M21.7495 6.86687V5C21.7495 4.31 21.1895 3.75 20.4995 3.75C19.8095 3.75 19.2495 4.31 19.2495 5V6.86687H12.766C8.85102 6.86687 5.66602 10.0519 5.66602 13.9669V22.4502C5.66602 26.3652 8.85102 29.5502 12.766 29.5502H17.9795L13.4877 34.1252C13.0043 34.6185 13.011 35.4085 13.5043 35.8918C13.9977 36.3768 14.7877 36.3685 15.271 35.8752L20.501 30.5502L25.7294 35.8752C25.9744 36.1252 26.2977 36.2502 26.621 36.2502C26.936 36.2502 27.2527 36.1318 27.496 35.8918C27.9894 35.4085 27.996 34.6185 27.5127 34.1252L23.022 29.5502H28.2327C32.1494 29.5502 35.3344 26.3652 35.3344 22.4502V13.9669C35.3344 10.0519 32.1494 6.86687 28.2327 6.86687H21.7495ZM15.643 16.3167H25.3564C26.0464 16.3167 26.6064 15.7567 26.6064 15.0667C26.6064 14.3767 26.0464 13.8167 25.3564 13.8167H15.643C14.953 13.8167 14.393 14.3767 14.393 15.0667C14.393 15.7567 14.953 16.3167 15.643 16.3167ZM15.643 22.115H20.6714C21.3614 22.115 21.9214 21.5567 21.9214 20.865C21.9214 20.175 21.3614 19.615 20.6714 19.615H15.643C14.953 19.615 14.393 20.175 14.393 20.865C14.393 21.5567 14.953 22.115 15.643 22.115Z" fill="#44413B"/>
</svg>
