<svg width="41" height="40" viewBox="0 0 41 40" fill="none" xmlns="http://www.w3.org/2000/svg">
<path d="M9.16398 4.58398C6.91053 4.58398 5.08398 6.41053 5.08398 8.66398V16.3373C5.08398 18.5908 6.91053 20.4173 9.16398 20.4173H13.504C15.7574 20.4173 17.584 18.5908 17.584 16.3373V8.66398C17.584 6.41053 15.7574 4.58398 13.504 4.58398H9.16398Z" fill="#44413B"/>
<path d="M9.16398 26.25C6.91053 26.25 5.08398 28.0765 5.08398 30.33V31.3367C5.08398 33.5902 6.91053 35.4167 9.16398 35.4167H13.504C15.7574 35.4167 17.584 33.5902 17.584 31.3367V30.33C17.584 28.0765 15.7574 26.25 13.504 26.25H9.16398Z" fill="#44413B"/>
<path d="M27.496 4.58398C25.2425 4.58398 23.416 6.41053 23.416 8.66398V31.3373C23.416 33.5908 25.2425 35.4173 27.496 35.4173H31.836C34.0895 35.4173 35.916 33.5908 35.916 31.3373V8.66398C35.916 6.41053 34.0895 4.58398 31.836 4.58398H27.496Z" fill="#44413B"/>
</svg>
