<svg width="24" height="24" viewBox="0 0 24 24" fill="none" xmlns="http://www.w3.org/2000/svg">
<path fill-rule="evenodd" clip-rule="evenodd" d="M15.8139 2.88086H8.18483C5.01107 2.88086 2.87891 4.91798 2.87891 7.94966V16.0521C2.87891 16.2892 2.91539 16.509 2.94035 16.7346L6.03827 12.4338C6.26675 12.1189 6.70163 12.0393 7.02419 12.2572L9.84755 14.1503L12.8331 9.6863L11.1109 10.0281C10.7173 10.1029 10.341 9.85334 10.2642 9.46262C10.1864 9.07286 10.4389 8.69366 10.8296 8.61686L14.2568 7.93526C14.349 7.91702 14.444 7.91702 14.5381 7.93526C14.6303 7.9535 14.7195 7.98902 14.7992 8.04278C14.8799 8.09654 14.9471 8.1647 14.9989 8.24438C15.0344 8.29718 15.0517 8.35862 15.0709 8.41814C15.0805 8.44694 15.0997 8.47094 15.1055 8.5007L15.7842 11.9289C15.8619 12.3186 15.6075 12.6978 15.2178 12.7746C15.1707 12.7833 15.1237 12.7881 15.0767 12.7881C14.7407 12.7881 14.4392 12.5509 14.372 12.2082L14.0303 10.485L10.6434 15.55C10.5378 15.7084 10.3727 15.8197 10.1855 15.8562C10.0011 15.8937 9.80435 15.8543 9.64403 15.7477L6.79955 13.8402L3.45395 18.4847C4.28339 20.1138 5.97011 21.1209 8.18483 21.1209H15.8139C18.9877 21.1209 21.1189 19.0837 21.1189 16.0521V7.94966C21.1189 4.91798 18.9877 2.88086 15.8139 2.88086Z" fill="black"/>
</svg>
