<svg width="24" height="24" viewBox="0 0 24 24" fill="none" xmlns="http://www.w3.org/2000/svg">
<path fill-rule="evenodd" clip-rule="evenodd" d="M12.7554 12.0002C12.7554 12.4142 12.4194 12.7502 12.0054 12.7502C11.5914 12.7502 11.2554 12.4142 11.2554 12.0002V8.4002C11.2554 7.9862 11.5914 7.6502 12.0054 7.6502C12.4194 7.6502 12.7554 7.9862 12.7554 8.4002V12.0002ZM12.0054 16.1852C11.5914 16.1852 11.2554 15.8802 11.2554 15.4662V15.4032C11.2554 14.9892 11.5914 14.6532 12.0054 14.6532C12.4194 14.6532 12.7554 14.9892 12.7554 15.4032C12.7554 15.8172 12.4194 16.1852 12.0054 16.1852ZM20.1234 8.8352L15.1654 3.8772C13.2724 1.9842 10.6724 2.0422 8.69145 4.0202L4.01945 8.6912C2.04245 10.6712 1.98445 13.2722 3.87645 15.1662L8.83445 20.1242C9.75645 21.0462 10.8464 21.5052 11.9504 21.5052C13.1144 21.5052 14.2934 20.9952 15.3084 19.9802L19.9804 15.3092C20.9314 14.3572 21.4564 13.2442 21.4974 12.0902C21.5394 10.9012 21.0644 9.7752 20.1234 8.8352Z" fill="black"/>
</svg>
