<svg width="25" height="24" viewBox="0 0 25 24" fill="none" xmlns="http://www.w3.org/2000/svg">
<path fill-rule="evenodd" clip-rule="evenodd" d="M12.9154 20.4092C12.6697 20.4092 12.423 20.3152 12.2358 20.128C11.8614 19.7516 11.8614 19.1449 12.2367 18.7696L14.463 16.5462C14.8383 16.1728 15.446 16.1718 15.8204 16.5472L16.9292 17.656L18.5343 16.0518C18.9087 15.6784 19.5174 15.6774 19.8927 16.0528C20.2662 16.4291 20.2662 17.0358 19.8918 17.4112L17.607 19.6931C17.2316 20.0665 16.6239 20.0675 16.2495 19.6921L15.1407 18.5833L13.5942 20.1289C13.407 20.3152 13.1612 20.4092 12.9154 20.4092Z" fill="#82807C"/>
<path fill-rule="evenodd" clip-rule="evenodd" d="M10.4804 3.35938C7.97869 3.35938 5.95117 5.41761 5.95117 7.95393C5.95117 10.4922 7.97869 12.5485 10.4804 12.5485C12.9822 12.5485 15.0097 10.4922 15.0097 7.95393C15.0097 5.41761 12.9822 3.35938 10.4804 3.35938Z" fill="#82807C"/>
<path fill-rule="evenodd" clip-rule="evenodd" d="M11.6944 13.8496H8.21631C5.65599 13.8496 3.49023 16.047 3.49023 18.6438C3.49023 19.1277 3.49023 19.7046 3.57951 20.1933C3.58527 20.2259 3.58719 20.2595 3.59199 20.2912C3.62175 20.4736 3.80991 20.6416 4.08063 20.6416H9.57472C9.87996 20.6416 10.1545 20.4563 10.2678 20.1731L12.3923 14.8826C12.591 14.3882 12.2272 13.8496 11.6944 13.8496Z" fill="#82807C"/>
</svg>
