<svg width="25" height="24" viewBox="0 0 25 24" fill="none" xmlns="http://www.w3.org/2000/svg">
<g opacity="0.6">
<path d="M11.75 14.8126V9.58721C11.2237 9.257 10.0508 8.62897 8.73633 8.62305V14.0561C9.92135 14.0633 10.9857 14.4403 11.75 14.8126Z" fill="#82807C"/>
<path d="M13.25 14.8126V9.58724C13.7758 9.25703 14.9485 8.62897 16.2623 8.62305V14.0561C15.078 14.0633 14.0139 14.4403 13.25 14.8126Z" fill="#82807C"/>
<path fill-rule="evenodd" clip-rule="evenodd" d="M8.282 21.5H16.716C19.876 21.5 22 19.277 22 15.97V8.03C22 4.723 19.877 2.5 16.717 2.5H8.282C5.123 2.5 3 4.723 3 8.03V15.97C3 19.277 5.123 21.5 8.282 21.5ZM12.9174 16.7528C12.9309 16.7439 12.9441 16.7345 12.9571 16.7247C12.9751 16.7097 14.8731 15.2857 16.8971 15.6017C17.1201 15.6357 17.3351 15.5727 17.5011 15.4297C17.6671 15.2867 17.7621 15.0787 17.7621 14.8607V7.92969C17.7621 7.56069 17.4951 7.24669 17.1311 7.18969C15.1181 6.86169 13.3161 7.77869 12.5001 8.28469C11.6831 7.77969 9.88415 6.86969 7.86814 7.18969C7.50515 7.24669 7.23615 7.56069 7.23615 7.92969V14.8607C7.23615 15.0787 7.33215 15.2867 7.49815 15.4297C7.66414 15.5727 7.88015 15.6337 8.10114 15.6017C10.1174 15.2896 11.9893 16.6845 12.0421 16.7239L12.0431 16.7247L12.0452 16.7262C12.1713 16.8226 12.3289 16.8798 12.4998 16.8798C12.6544 16.8798 12.798 16.833 12.9174 16.7528Z" fill="#82807C"/>
</g>
</svg>
