<svg width="25" height="24" viewBox="0 0 25 24" fill="none" xmlns="http://www.w3.org/2000/svg">
<g opacity="0.6">
<path fill-rule="evenodd" clip-rule="evenodd" d="M15.9709 4.59016C14.5453 3.54376 12.5408 3.85 11.4935 5.27464L5.81509 13.0026C4.72645 14.4839 4.36549 16.378 4.83301 18.1569C5.01253 18.8394 5.64517 19.3041 6.34981 19.2714C8.18629 19.186 9.88645 18.2759 10.976 16.7946L16.6544 9.06664C17.7018 7.642 17.3956 5.63848 15.9709 4.59016Z" fill="#82807C"/>
<path fill-rule="evenodd" clip-rule="evenodd" d="M19.3109 18.6094H13.3723C12.9749 18.6094 12.6523 18.9319 12.6523 19.3294C12.6523 19.7268 12.9749 20.0494 13.3723 20.0494H19.3109C19.7083 20.0494 20.0309 19.7268 20.0309 19.3294C20.0309 18.9319 19.7083 18.6094 19.3109 18.6094Z" fill="#82807C"/>
</g>
</svg>
