<svg width="25" height="24" viewBox="0 0 25 24" fill="none" xmlns="http://www.w3.org/2000/svg">
<g opacity="0.6">
<path fill-rule="evenodd" clip-rule="evenodd" d="M16.4748 4.59016C15.0492 3.54376 13.0448 3.85 11.9974 5.27464L6.31899 13.0026C5.23035 14.4839 4.86939 16.378 5.33691 18.1569C5.51643 18.8394 6.14907 19.3041 6.85371 19.2714C8.69019 19.186 10.3904 18.2759 11.48 16.7946L17.1584 9.06664C18.2057 7.642 17.8995 5.63848 16.4748 4.59016Z" fill="#A1A09D"/>
<path fill-rule="evenodd" clip-rule="evenodd" d="M19.8148 18.6094H13.8762C13.4788 18.6094 13.1562 18.9319 13.1562 19.3294C13.1562 19.7268 13.4788 20.0494 13.8762 20.0494H19.8148C20.2123 20.0494 20.5348 19.7268 20.5348 19.3294C20.5348 18.9319 20.2123 18.6094 19.8148 18.6094Z" fill="#A1A09D"/>
</g>
</svg>
