<svg width="24" height="24" viewBox="0 0 24 24" fill="none" xmlns="http://www.w3.org/2000/svg">
<g opacity="0.6">
<path d="M11.248 14.8126V9.58721C10.7217 9.257 9.54888 8.62897 8.23438 8.62305V14.0561C9.41939 14.0633 10.4837 14.4403 11.248 14.8126Z" fill="#A1A09D"/>
<path d="M12.75 14.8126V9.58724C13.2758 9.25703 14.4485 8.62897 15.7623 8.62305V14.0561C14.578 14.0633 13.5139 14.4403 12.75 14.8126Z" fill="#A1A09D"/>
<path fill-rule="evenodd" clip-rule="evenodd" d="M7.782 21.5H16.216C19.376 21.5 21.5 19.277 21.5 15.97V8.03C21.5 4.723 19.377 2.5 16.217 2.5H7.782C4.623 2.5 2.5 4.723 2.5 8.03V15.97C2.5 19.277 4.623 21.5 7.782 21.5ZM12.4174 16.7528C12.4309 16.7439 12.4441 16.7345 12.4571 16.7247C12.4751 16.7097 14.3731 15.2857 16.3971 15.6017C16.6201 15.6357 16.8351 15.5727 17.0011 15.4297C17.1671 15.2867 17.2621 15.0787 17.2621 14.8607V7.92969C17.2621 7.56069 16.9951 7.24669 16.6311 7.18969C14.6181 6.86169 12.8161 7.77869 12.0001 8.28469C11.1831 7.77969 9.38415 6.86969 7.36814 7.18969C7.00515 7.24669 6.73615 7.56069 6.73615 7.92969V14.8607C6.73615 15.0787 6.83215 15.2867 6.99815 15.4297C7.16414 15.5727 7.38015 15.6337 7.60114 15.6017C9.61736 15.2896 11.4893 16.6845 11.5421 16.7239L11.5431 16.7247L11.5452 16.7262C11.6713 16.8226 11.8289 16.8798 11.9998 16.8798C12.1544 16.8798 12.298 16.833 12.4174 16.7528Z" fill="#A1A09D"/>
</g>
</svg>
