<svg width="25" height="24" viewBox="0 0 25 24" fill="none" xmlns="http://www.w3.org/2000/svg">
<path fill-rule="evenodd" clip-rule="evenodd" d="M6.66797 13.5C4.46197 13.5 2.66797 15.294 2.66797 17.5C2.66797 19.706 4.46197 21.5 6.66797 21.5C8.87397 21.5 10.668 19.706 10.668 17.5C10.668 15.294 8.87397 13.5 6.66797 13.5Z" fill="#A1A09D"/>
<path fill-rule="evenodd" clip-rule="evenodd" d="M6.66797 2.5C4.46197 2.5 2.66797 4.294 2.66797 6.5C2.66797 8.706 4.46197 10.5 6.66797 10.5C8.87397 10.5 10.668 8.706 10.668 6.5C10.668 4.294 8.87397 2.5 6.66797 2.5Z" fill="#A1A09D"/>
<path fill-rule="evenodd" clip-rule="evenodd" d="M17.668 10.5C19.874 10.5 21.668 8.706 21.668 6.5C21.668 4.294 19.874 2.5 17.668 2.5C15.462 2.5 13.668 4.294 13.668 6.5C13.668 8.706 15.462 10.5 17.668 10.5Z" fill="#A1A09D"/>
<path fill-rule="evenodd" clip-rule="evenodd" d="M17.668 13.5C15.462 13.5 13.668 15.294 13.668 17.5C13.668 19.706 15.462 21.5 17.668 21.5C19.874 21.5 21.668 19.706 21.668 17.5C21.668 15.294 19.874 13.5 17.668 13.5Z" fill="#A1A09D"/>
</svg>
